<svg width="120" height="121" viewBox="0 0 120 121" fill="none" xmlns="http://www.w3.org/2000/svg">
<rect y="0.799805" width="120" height="120" rx="60" fill="white"/>
<path d="M76.6841 68.9125C76.6639 68.9042 76.6435 68.8967 76.623 68.8897C74.6387 68.1527 73.0578 67.9132 72.8536 67.866C72.7158 67.4202 72.4842 66.9979 72.158 66.6317C70.5814 64.8628 68.6904 63.8889 67.6672 63.454V62.1639C69.9021 60.5577 71.4688 58.4506 72.1251 55.2499H73.3773C75.3255 55.2499 76.9107 53.6649 76.9107 51.7167V49.5872C76.9107 48.0055 75.8658 46.6631 74.4277 46.2141V43.1265C74.8549 42.8378 75.1493 42.3844 75.2358 41.8754L76.0081 37.3339L80.7077 35.5499V37.0906C79.8459 37.2159 79.1562 37.9045 79.053 38.7927L78.4965 43.5906C78.363 44.7437 79.2639 45.7641 80.4326 45.7641H83.0918C84.2528 45.7641 85.1627 44.7514 85.028 43.5903L84.4715 38.7927C84.3684 37.9047 83.6787 37.2159 82.8168 37.0906V33.781C82.8168 33.7797 82.8169 33.7786 82.8169 33.7773C82.8168 33.1871 82.4602 32.6705 81.9085 32.4612L76.1378 30.2707C75.5929 30.0637 74.9841 30.3379 74.7774 30.8824C74.5707 31.4271 74.8446 32.0361 75.3891 32.2428L79.4329 33.7778L75.169 35.3964C75.0141 35.2976 74.8429 35.2192 74.657 35.1676C64.8808 32.4564 55.3763 32.4567 45.6009 35.1676C45.415 35.219 45.2437 35.2976 45.0888 35.3964L40.8249 33.7778L57.7855 27.3395C59.2964 26.7658 60.9613 26.7656 62.4727 27.3395L70.7735 30.4905C71.3184 30.6977 71.9271 30.4233 72.1339 29.8788C72.3406 29.3342 72.0667 28.7251 71.5222 28.5184L63.2214 25.3675C61.227 24.6106 59.0309 24.6106 57.0368 25.3675L38.3497 32.4611C37.7978 32.6705 37.4412 33.1871 37.4412 33.7773C37.441 34.3675 37.7975 34.8845 38.3496 35.0942L44.2501 37.3339L45.0225 41.8752C45.109 42.3843 45.4035 42.8378 45.8307 43.1264V46.2132C44.3937 46.6615 43.3477 48.0045 43.3477 49.5871V51.7166C43.3477 53.6647 44.9327 55.2498 46.881 55.2498H48.1336C48.736 58.27 50.1776 60.3504 52.3332 61.9736V63.454C51.3099 63.8888 49.4189 64.8629 47.8426 66.6317C47.5164 66.9977 47.2848 67.42 47.147 67.8658C47.0965 67.8775 45.0121 68.2192 43.3161 68.9125C35.088 71.9977 29.4199 79.933 29.4199 88.959V91.4188C29.4199 94.3859 31.8339 96.7998 34.8009 96.7998H85.1995C88.1666 96.7998 90.5805 94.3859 90.5805 91.4188V88.959C90.5805 79.9327 84.9124 71.9974 76.6841 68.9125ZM82.3928 39.1778L82.912 43.6548H80.6126L81.1318 39.1778H82.3928ZM68.1807 66.08C68.9379 66.5314 69.8126 67.1709 70.583 68.0351C70.9542 68.4519 70.9932 69.0623 70.6936 69.5125C70.6934 69.5131 70.6931 69.5137 70.6927 69.5142C70.69 69.5182 70.6875 69.5221 70.6849 69.5262L66.5313 75.7283C66.5311 75.7286 66.5309 75.7289 66.5307 75.7292C66.1731 76.2631 65.466 76.4144 64.9215 76.074C63.9169 75.4462 62.3781 74.4848 61.7638 74.101L66.5448 69.8711C67.6415 68.9005 68.221 67.4971 68.1807 66.08ZM64.8518 78.2911C64.5061 78.8326 64.004 79.6195 63.2747 80.7625L62.5969 78.8041L63.4478 77.6402C63.6784 77.7668 64.0995 78.1258 64.8518 78.2911ZM65.8898 65.2326C66.3045 66.3021 66.006 67.5313 65.147 68.2912L60.0002 72.8447L54.8536 68.2912C53.9946 67.5313 53.696 66.3022 54.1109 65.2328C54.2679 64.7452 54.4426 64.5322 54.4426 64.1799V63.2852C57.8788 64.9988 61.9531 65.1076 65.5577 63.4082V64.1799C65.5577 64.45 65.6427 64.5886 65.8898 65.2326ZM60.0002 75.4863L61.654 76.5196L60.8841 77.5726H59.1164L58.3465 76.5196L60.0002 75.4863ZM59.3321 79.682H60.6685L61.8275 83.0308C61.5406 83.4805 61.2327 83.9632 60.9007 84.4836C60.482 85.1453 59.5224 85.1513 59.098 84.4802C58.7667 83.9611 58.4595 83.4796 58.1732 83.0308L59.3321 79.682ZM72.3181 46.0539H71.1172C70.4987 46.0539 69.9329 45.5994 69.9329 44.9411V42.7225C70.7263 42.8787 71.5212 43.0535 72.3181 43.2474V46.0539ZM74.8012 49.5872V51.7167C74.8012 52.5018 74.1623 53.1406 73.3772 53.1406H72.3877C72.425 52.4151 72.3948 53.364 72.406 48.1633H73.3728C73.3735 48.1633 73.3742 48.1631 73.3751 48.1631C73.3759 48.1631 73.3765 48.1633 73.3773 48.1633C74.1623 48.1633 74.8012 48.8021 74.8012 49.5872ZM73.9003 37.1469L73.1956 41.2902C64.4403 39.0989 55.8881 39.081 47.0625 41.2901L46.3578 37.1469C55.6222 34.6117 64.6355 34.6117 73.9003 37.1469ZM46.881 53.1407C46.0959 53.1407 45.4571 52.502 45.4571 51.7169V49.5874C45.4571 48.8023 46.0959 48.1634 46.881 48.1634H46.8854H47.856C47.8722 53.2366 47.8388 52.3384 47.8789 53.1407H46.881ZM47.9401 46.0539V43.2473C48.737 43.0534 49.532 42.8784 50.3254 42.7224C50.324 45.0892 50.3285 44.9507 50.3214 45.0425C50.2769 45.6097 49.7582 46.0539 49.1412 46.0539C49.1192 46.0539 47.8602 46.0539 47.9401 46.0539ZM49.9686 52.6501L49.9654 48.0571C51.2934 47.7192 52.3155 46.5901 52.4242 45.2085C52.4428 44.974 52.4312 45.0639 52.4348 42.3511C57.5818 41.5526 62.6765 41.5526 67.8236 42.3512C67.8271 45.0332 67.8156 44.9749 67.8342 45.208C67.943 46.5912 68.9669 47.7212 70.2968 48.0579C70.2972 54.2418 70.2848 52.3227 70.2975 52.6984C69.9606 65.755 50.2608 65.7919 49.9686 52.6501ZM49.4175 68.0351C50.1877 67.1707 51.0625 66.5313 51.8198 66.0799C51.7796 67.4968 52.359 68.9005 53.456 69.8711L58.2369 74.101C57.5915 74.5015 56.7345 75.0356 55.0792 76.074C54.5348 76.4143 53.8281 76.2631 53.4703 75.7296L49.3158 69.5262C49.3132 69.5221 49.3105 69.5182 49.3078 69.5141C49.3075 69.5137 49.3073 69.5131 49.307 69.5127C49.0135 69.0717 49.0392 68.4597 49.4175 68.0351ZM57.4036 78.8042L56.7258 80.7627C55.9964 79.6195 55.4942 78.8326 55.1485 78.2911C55.8995 78.1261 56.314 77.7712 56.5527 77.6405L57.4036 78.8042ZM88.4712 91.4188C88.4712 93.2229 87.0036 94.6905 85.1995 94.6905H79.725V87.4505C79.725 86.8679 79.2529 86.3958 78.6703 86.3958C78.0877 86.3958 77.6156 86.8679 77.6156 87.4505V94.6905H42.3848V87.4505C42.3848 86.8679 41.9128 86.3958 41.3302 86.3958C40.7475 86.3958 40.2755 86.8679 40.2755 87.4505V94.6905H34.8009C32.9969 94.6905 31.5293 93.2229 31.5293 91.4188V88.959C31.5293 81.1052 36.2899 74.1676 43.2912 71.1937L46.4578 76.215C46.6583 76.5331 47.0007 76.7072 47.3509 76.7072C47.5431 76.7072 47.7379 76.6546 47.9125 76.5445C48.4051 76.2339 48.5528 75.5825 48.242 75.0897L45.3239 70.4625C46.3222 70.1655 47.0069 70.0465 47.2063 70.0028C47.5866 71.0407 47.0827 69.5698 57.3175 85.6114C58.5656 87.5848 61.439 87.5785 62.6811 85.6148C70.6987 73.0472 72.4311 70.6997 72.4451 70.6884C72.5881 70.474 72.7175 70.2123 72.7943 70.0026C73.0109 70.05 73.6469 70.1559 74.6767 70.4622L64.4268 86.7152C62.3892 89.9462 57.6107 89.9454 55.5738 86.7152L50.8731 79.2614C50.5625 78.7686 49.9111 78.6212 49.4183 78.9319C48.9257 79.2425 48.7781 79.8939 49.0889 80.3867L53.7895 87.8405C56.6549 92.3838 63.3456 92.3839 66.2108 87.8405L76.7092 71.1933C83.7105 74.1672 88.471 81.1048 88.471 88.9587V91.4188H88.4712Z" fill="black"/>
</svg>
